<svg width="144" height="44" viewBox="0 0 144 44" fill="none" xmlns="http://www.w3.org/2000/svg">
<g clip-path="url(#clip0_2_14)">
<path d="M75.892 11.0552C75.892 12.6409 74.5873 13.9178 72.9681 13.9178C71.3489 13.9178 70.0451 12.6409 70.0451 11.0552C70.0451 9.46945 71.3045 8.19259 72.9681 8.19259C74.6331 8.23659 75.892 9.51389 75.892 11.0552ZM63.8389 16.8252V17.5301C63.8389 17.5301 62.4453 15.7675 59.4769 15.7675C54.5754 15.7675 50.7521 19.4234 50.7521 24.4881C50.7521 29.5093 54.5305 33.2087 59.4769 33.2087C62.4902 33.2087 63.8389 31.403 63.8389 31.403V32.1515C63.8389 32.5039 64.1094 32.7674 64.4688 32.7674H68.111V16.2066H64.4688C64.1094 16.2079 63.8389 16.5168 63.8389 16.8252ZM63.8389 27.4391C63.165 28.4084 61.8154 29.2453 60.1967 29.2453C57.3186 29.2453 55.1145 27.4836 55.1145 24.4881C55.1145 21.4931 57.3186 19.7314 60.1967 19.7314C61.7709 19.7314 63.2099 20.6122 63.8389 21.5371V27.4391ZM70.8098 16.2079H75.1268V32.7687H70.8098V16.2079ZM135.3 15.7671C132.332 15.7671 130.938 17.5297 130.938 17.5297V8.23659H126.62V32.7687H130.264C130.623 32.7687 130.893 32.4603 130.893 32.1519V31.4035C130.893 31.4035 132.287 33.2092 135.255 33.2092C140.157 33.2092 143.979 29.5106 143.979 24.4894C143.979 19.4683 140.157 15.7671 135.3 15.7671ZM134.581 29.2009C132.916 29.2009 131.612 28.3649 130.938 27.3951V21.4931C131.612 20.6122 133.051 19.6874 134.581 19.6874C137.459 19.6874 139.662 21.4491 139.662 24.4441C139.662 27.4391 137.459 29.2009 134.581 29.2009ZM124.372 22.9473V32.8128H120.054V23.4313C120.054 20.7011 119.155 19.5994 116.728 19.5994C115.424 19.5994 114.075 20.2602 113.219 21.2295V32.7692H108.903V16.2084H112.319C112.679 16.2084 112.949 16.5168 112.949 16.8252V17.5301C114.208 16.2524 115.872 15.7675 117.536 15.7675C119.425 15.7675 120.999 16.2968 122.259 17.3537C123.787 18.587 124.372 20.1722 124.372 22.9473ZM98.4224 15.7671C95.455 15.7671 94.0605 17.5297 94.0605 17.5297V8.23659H89.7434V32.7687H93.3857C93.7455 32.7687 94.0155 32.4603 94.0155 32.1519V31.4035C94.0155 31.4035 95.4101 33.2092 98.3775 33.2092C103.28 33.2092 107.102 29.5106 107.102 24.4894C107.147 19.4678 103.325 15.7671 98.4224 15.7671ZM97.7027 29.2009C96.0391 29.2009 94.7353 28.3649 94.0605 27.3951V21.4931C94.7353 20.6122 96.1743 19.6874 97.7027 19.6874C100.582 19.6874 102.785 21.4491 102.785 24.4441C102.785 27.4391 100.582 29.2009 97.7027 29.2009ZM86.0104 15.7671C87.3142 15.7671 87.989 15.9879 87.989 15.9879V19.9074C87.989 19.9074 84.3913 18.7181 82.1431 21.2291V32.8123H77.8252V16.2079H81.4683C81.8282 16.2079 82.0973 16.5164 82.0973 16.8248V17.5297C82.9078 16.6043 84.6617 15.7671 86.0104 15.7671ZM41.1736 31.271C40.949 30.7426 40.7239 30.1702 40.4993 29.6853C40.139 28.8929 39.7791 28.1436 39.4651 27.4391L39.4201 27.3951C36.3166 20.7882 32.9893 14.0942 29.4809 7.48817L29.3461 7.22329C28.9771 6.53799 28.6175 5.84788 28.2674 5.15314C27.8173 4.35983 27.368 3.52384 26.6483 2.73054C25.2092 0.968813 23.1403 -0.000488281 20.9371 -0.000488281C18.6881 -0.000488281 16.6646 0.968818 15.1811 2.6421C14.5063 3.43453 14.0112 4.2714 13.5619 5.0647C13.2109 5.75901 12.8513 6.44911 12.4832 7.13486L12.348 7.39973C8.88499 14.0058 5.51231 20.7002 2.40919 27.3067L2.36382 27.3943C2.04933 28.1 1.68901 28.8484 1.32915 29.6404C1.10451 30.1253 0.879878 30.6537 0.655242 31.2261C0.0702913 32.8554 -0.109875 34.3972 0.115659 35.9833C0.610306 39.2868 2.85846 42.0605 5.96202 43.2947C7.13147 43.7795 8.34585 43.9995 9.60471 43.9995C9.96458 43.9995 10.4139 43.9555 10.7742 43.9111C12.2586 43.7351 13.7874 43.2511 15.2718 42.4142C17.1156 41.4009 18.8696 39.9481 20.8482 37.8339C22.8268 39.9481 24.6256 41.4009 26.4245 42.4142C27.9094 43.2511 29.4378 43.7351 30.9217 43.9111C31.2816 43.956 31.7318 43.9995 32.0916 43.9995C33.3509 43.9995 34.6098 43.7795 35.7339 43.2947C38.8824 42.0605 41.0856 39.2428 41.5807 35.9833C41.9378 34.442 41.7581 32.9012 41.1736 31.271ZM20.8918 33.5612C18.463 30.5662 16.8887 27.7476 16.3496 25.3699C16.125 24.3566 16.0796 23.4757 16.2148 22.6828C16.3042 21.978 16.5747 21.3611 16.9346 20.8327C17.7891 19.6442 19.2281 18.8949 20.8922 18.8949C22.5568 18.8949 24.0407 19.5998 24.8503 20.8327C25.2101 21.3611 25.4797 21.9784 25.5705 22.6828C25.7048 23.4761 25.6599 24.4006 25.4352 25.3699C24.8939 27.7036 23.3196 30.5226 20.8918 33.5612ZM38.8347 35.6313C38.5202 37.9215 36.946 39.9041 34.7428 40.7849C33.6636 41.2249 32.4937 41.3574 31.3252 41.2249C30.2011 41.0925 29.0761 40.7401 27.9076 40.0801C26.2884 39.1983 24.6697 37.8339 22.7805 35.8073C25.7484 32.2403 27.5473 28.9804 28.2221 26.0743C28.537 24.7086 28.5824 23.4757 28.4467 22.33C28.2674 21.2291 27.8622 20.2158 27.2328 19.3349C25.8378 17.3523 23.4989 16.2079 20.8913 16.2079C18.2837 16.2079 15.9448 17.3972 14.5507 19.3349C13.9213 20.2158 13.5161 21.2291 13.3364 22.33C13.1566 23.4757 13.2011 24.7526 13.561 26.0743C14.2353 28.9804 16.0792 32.2839 19.0021 35.8513C17.1583 37.8775 15.4942 39.2432 13.875 40.1241C12.7056 40.785 11.582 41.1374 10.4579 41.2689C9.24396 41.4014 8.07405 41.2249 7.03983 40.829C4.83661 39.9481 3.26236 37.9655 2.94787 35.6753C2.81309 34.5745 2.90249 33.4736 3.35266 32.2403C3.487 31.7994 3.71253 31.3595 3.93716 30.831C4.2521 30.1262 4.61107 29.3769 4.97139 28.6284L5.01677 28.5409C8.11943 21.978 11.4472 15.2835 14.9102 8.76546L15.0449 8.50059C15.4053 7.8406 15.7651 7.13574 16.1245 6.47487C16.4844 5.77 16.8887 5.10913 17.3838 4.53626C18.3282 3.48029 19.5871 2.90698 20.9816 2.90698C22.3761 2.90698 23.635 3.48029 24.5794 4.53626C25.0745 5.11045 25.4788 5.77132 25.8387 6.47487C26.199 7.13574 26.5589 7.8406 26.9178 8.50059L27.0531 8.76546C30.4632 15.3106 33.7468 21.9182 36.902 28.5849V28.6289C37.2623 29.3346 37.5768 30.1266 37.9366 30.8324C38.1613 31.3599 38.3864 31.7999 38.5211 32.2408C38.8801 33.3848 39.0149 34.4865 38.8347 35.6313Z" fill="#FF5A5F"/>
</g>
<defs>
<clipPath id="clip0_2_14">
<rect width="144" height="44" fill="white"/>
</clipPath>
</defs>
</svg>
